<?xml version="1.0" encoding="utf-8"?>
<svg xmlns="http://www.w3.org/2000/svg" style="margin: auto; background: none; display: block; shape-rendering: auto; animation-play-state: running; animation-delay: 0s;" width="280" height="250" preserveAspectRatio="xMidYMid">
<style type="text/css" style="animation-play-state: running; animation-delay: 0s;">
  text {
    text-anchor: middle; font-size: 61px; opacity: 0;
  }
</style>
<g style="transform-origin: 140px 125px; transform: scale(1); animation-play-state: running; animation-delay: 0s;">
<g transform="translate(140,125)" style="animation-play-state: running; animation-delay: 0s;">
  <g transform="translate(0,0)" style="animation-play-state: running; animation-delay: 0s;"><g class="path" style="transform: scale(0.91); transform-origin: -110.465px -2.69089px; animation: 1s linear -0.586667s infinite normal forwards running breath-e4a861c5-c6f3-4a83-ab63-ad6842d1aad9;"><path d="M11.41-28.43L2.26-28.43L2.26-28.43Q1.83-29.10 1.46-30.26L1.46-30.26L1.46-30.26Q1.10-31.41 1.10-32.70L1.10-32.70L1.10-32.70Q1.10-35.07 2.17-36.11L2.17-36.11L2.17-36.11Q3.23-37.15 4.94-37.15L4.94-37.15L31.54-37.15L31.54-37.15Q31.96-36.48 32.33-35.32L32.33-35.32L32.33-35.32Q32.70-34.16 32.70-32.88L32.70-32.88L32.70-32.88Q32.70-30.50 31.63-29.46L31.63-29.46L31.63-29.46Q30.56-28.43 28.85-28.43L28.85-28.43L22.08-28.43L22.08-0.24L22.08-0.24Q21.41-0.06 19.98 0.12L19.98 0.12L19.98 0.12Q18.54 0.30 17.14 0.30L17.14 0.30L17.14 0.30Q15.74 0.30 14.67 0.09L14.67 0.09L14.67 0.09Q13.60-0.12 12.87-0.67L12.87-0.67L12.87-0.67Q12.14-1.22 11.77-2.20L11.77-2.20L11.77-2.20Q11.41-3.17 11.41-4.76L11.41-4.76L11.41-28.43" fill="#ff2626" stroke="none" stroke-width="none" transform="translate(-127.364990234375,15.734109564887152)" style="fill: rgb(255, 38, 38); animation-play-state: running; animation-delay: 0s;"></path></g><g class="path" style="transform: scale(0.91); transform-origin: -75.575px -4.18089px; animation: 1s linear -0.513333s infinite normal forwards running breath-e4a861c5-c6f3-4a83-ab63-ad6842d1aad9;"><path d="M66.37-18.54L66.37-0.06L66.37-0.06Q65.76 0.12 64.45 0.30L64.45 0.30L64.45 0.30Q63.13 0.49 61.73 0.49L61.73 0.49L61.73 0.49Q60.39 0.49 59.32 0.30L59.32 0.30L59.32 0.30Q58.25 0.12 57.52-0.43L57.52-0.43L57.52-0.43Q56.79-0.98 56.39-1.92L56.39-1.92L56.39-1.92Q56.00-2.87 56.00-4.39L56.00-4.39L56.00-17.93L56.00-17.93Q56.00-20.43 54.75-21.44L54.75-21.44L54.75-21.44Q53.50-22.45 51.67-22.45L51.67-22.45L51.67-22.45Q50.45-22.45 49.35-22.14L49.35-22.14L49.35-22.14Q48.25-21.84 47.58-21.41L47.58-21.41L47.58-0.06L47.58-0.06Q46.97 0.12 45.66 0.30L45.66 0.30L45.66 0.30Q44.35 0.49 42.94 0.49L42.94 0.49L42.94 0.49Q41.60 0.49 40.53 0.30L40.53 0.30L40.53 0.30Q39.47 0.12 38.73-0.43L38.73-0.43L38.73-0.43Q38.00-0.98 37.61-1.92L37.61-1.92L37.61-1.92Q37.21-2.87 37.21-4.39L37.21-4.39L37.21-39.77L37.21-39.77Q37.88-39.89 39.19-40.11L39.19-40.11L39.19-40.11Q40.50-40.32 41.85-40.32L41.85-40.32L41.85-40.32Q43.19-40.32 44.26-40.14L44.26-40.14L44.26-40.14Q45.32-39.95 46.05-39.41L46.05-39.41L46.05-39.41Q46.79-38.86 47.18-37.91L47.18-37.91L47.18-37.91Q47.58-36.97 47.58-35.44L47.58-35.44L47.58-29.46L47.58-29.46Q48.37-29.77 49.99-30.16L49.99-30.16L49.99-30.16Q51.61-30.56 53.56-30.56L53.56-30.56L53.56-30.56Q59.60-30.56 62.98-27.54L62.98-27.54L62.98-27.54Q66.37-24.52 66.37-18.54L66.37-18.54" fill="#ff2626" stroke="none" stroke-width="none" transform="translate(-127.364990234375,15.734109564887152)" style="fill: rgb(255, 38, 38); animation-play-state: running; animation-delay: 0s;"></path></g><g class="path" style="transform: scale(0.91); transform-origin: -49.16px -22.1459px; animation: 1s linear -0.44s infinite normal forwards running breath-e4a861c5-c6f3-4a83-ab63-ad6842d1aad9;"><path d="M72.53-37.88L72.53-37.88L72.53-37.88Q72.53-40.20 74.08-41.78L74.08-41.78L74.08-41.78Q75.64-43.37 78.20-43.37L78.20-43.37L78.20-43.37Q80.76-43.37 82.32-41.78L82.32-41.78L82.32-41.78Q83.88-40.20 83.88-37.88L83.88-37.88L83.88-37.88Q83.88-35.56 82.32-33.98L82.32-33.98L82.32-33.98Q80.76-32.39 78.20-32.39L78.20-32.39L78.20-32.39Q75.64-32.39 74.08-33.98L74.08-33.98L74.08-33.98Q72.53-35.56 72.53-37.88" fill="#ff2626" stroke="none" stroke-width="none" transform="translate(-127.364990234375,15.734109564887152)" style="fill: rgb(255, 38, 38); animation-play-state: running; animation-delay: 0s;"></path></g><g class="path" style="transform: scale(0.91); transform-origin: -49.16px 1.09411px; animation: 1s linear -0.366667s infinite normal forwards running breath-e4a861c5-c6f3-4a83-ab63-ad6842d1aad9;"><path d="M83.39-24.89L83.39-0.06L83.39-0.06Q82.72 0.06 81.40 0.27L81.40 0.27L81.40 0.27Q80.09 0.49 78.75 0.49L78.75 0.49L78.75 0.49Q77.41 0.49 76.34 0.30L76.34 0.30L76.34 0.30Q75.27 0.12 74.54-0.43L74.54-0.43L74.54-0.43Q73.81-0.98 73.41-1.92L73.41-1.92L73.41-1.92Q73.02-2.87 73.02-4.39L73.02-4.39L73.02-29.22L73.02-29.22Q73.69-29.34 75.00-29.55L75.00-29.55L75.00-29.55Q76.31-29.77 77.65-29.77L77.65-29.77L77.65-29.77Q79.00-29.77 80.06-29.59L80.06-29.59L80.06-29.59Q81.13-29.40 81.86-28.85L81.86-28.85L81.86-28.85Q82.59-28.30 82.99-27.36L82.99-27.36L82.99-27.36Q83.39-26.41 83.39-24.89L83.39-24.89" fill="#ff2626" stroke="none" stroke-width="none" transform="translate(-127.364990234375,15.734109564887152)" style="fill: rgb(255, 38, 38); animation-play-state: running; animation-delay: 0s;"></path></g><g class="path" style="transform: scale(0.91); transform-origin: -26.99px 0.72911px; animation: 1s linear -0.293333s infinite normal forwards running breath-e4a861c5-c6f3-4a83-ab63-ad6842d1aad9;"><path d="M100.34-20.86L100.34-0.06L100.34-0.06Q99.73 0.12 98.42 0.30L98.42 0.30L98.42 0.30Q97.11 0.49 95.71 0.49L95.71 0.49L95.71 0.49Q94.37 0.49 93.30 0.30L93.30 0.30L93.30 0.30Q92.23 0.12 91.50-0.43L91.50-0.43L91.50-0.43Q90.77-0.98 90.37-1.92L90.37-1.92L90.37-1.92Q89.97-2.87 89.97-4.39L89.97-4.39L89.97-22.69L89.97-22.69Q89.97-24.09 90.49-25.10L90.49-25.10L90.49-25.10Q91.01-26.11 91.99-26.90L91.99-26.90L91.99-26.90Q92.96-27.69 94.40-28.33L94.40-28.33L94.40-28.33Q95.83-28.97 97.48-29.46L97.48-29.46L97.48-29.46Q99.13-29.95 100.89-30.23L100.89-30.23L100.89-30.23Q102.66-30.50 104.43-30.50L104.43-30.50L104.43-30.50Q107.36-30.50 109.07-29.37L109.07-29.37L109.07-29.37Q110.78-28.24 110.78-25.68L110.78-25.68L110.78-25.68Q110.78-24.83 110.53-24.00L110.53-24.00L110.53-24.00Q110.29-23.18 109.92-22.51L109.92-22.51L109.92-22.51Q108.64-22.51 107.30-22.39L107.30-22.39L107.30-22.39Q105.96-22.27 104.68-22.02L104.68-22.02L104.68-22.02Q103.39-21.78 102.27-21.50L102.27-21.50L102.27-21.50Q101.14-21.23 100.34-20.86L100.34-20.86" fill="#ff2626" stroke="none" stroke-width="none" transform="translate(-127.364990234375,15.734109564887152)" style="fill: rgb(255, 38, 38); animation-play-state: running; animation-delay: 0s;"></path></g><g class="path" style="transform: scale(0.91); transform-origin: 0.525009px -3.93589px; animation: 1s linear -0.22s infinite normal forwards running breath-e4a861c5-c6f3-4a83-ab63-ad6842d1aad9;"><path d="M112.61-14.82L112.61-14.82L112.61-14.82Q112.61-18.85 113.83-21.81L113.83-21.81L113.83-21.81Q115.05-24.77 117.21-26.72L117.21-26.72L117.21-26.72Q119.38-28.67 122.27-29.62L122.27-29.62L122.27-29.62Q125.17-30.56 128.53-30.56L128.53-30.56L128.53-30.56Q129.75-30.56 130.91-30.35L130.91-30.35L130.91-30.35Q132.06-30.13 132.80-29.83L132.80-29.83L132.80-39.71L132.80-39.71Q133.41-39.89 134.75-40.11L134.75-40.11L134.75-40.11Q136.09-40.32 137.49-40.32L137.49-40.32L137.49-40.32Q138.84-40.32 139.90-40.14L139.90-40.14L139.90-40.14Q140.97-39.95 141.70-39.41L141.70-39.41L141.70-39.41Q142.44-38.86 142.80-37.91L142.80-37.91L142.80-37.91Q143.17-36.97 143.17-35.44L143.17-35.44L143.17-6.53L143.17-6.53Q143.17-3.66 140.48-1.95L140.48-1.95L140.48-1.95Q138.71-0.79 135.91 0.09L135.91 0.09L135.91 0.09Q133.10 0.98 129.44 0.98L129.44 0.98L129.44 0.98Q125.48 0.98 122.34-0.12L122.34-0.12L122.34-0.12Q119.19-1.22 117.03-3.29L117.03-3.29L117.03-3.29Q114.86-5.37 113.73-8.27L113.73-8.27L113.73-8.27Q112.61-11.16 112.61-14.82zM129.93-22.45L129.93-22.45L129.93-22.45Q126.64-22.45 124.87-20.56L124.87-20.56L124.87-20.56Q123.10-18.67 123.10-14.82L123.10-14.82L123.10-14.82Q123.10-11.04 124.74-9.12L124.74-9.12L124.74-9.12Q126.39-7.20 129.50-7.20L129.50-7.20L129.50-7.20Q130.60-7.20 131.49-7.53L131.49-7.53L131.49-7.53Q132.37-7.87 132.86-8.30L132.86-8.30L132.86-21.72L132.86-21.72Q131.64-22.45 129.93-22.45" fill="#ff2626" stroke="none" stroke-width="none" transform="translate(-127.364990234375,15.734109564887152)" style="fill: rgb(255, 38, 38); animation-play-state: running; animation-delay: 0s;"></path></g><g class="path" style="transform: scale(0.91); transform-origin: 48.835px -2.66089px; animation: 1s linear -0.146667s infinite normal forwards running breath-e4a861c5-c6f3-4a83-ab63-ad6842d1aad9;"><path d="M162.63-5.49L162.63-31.29L162.63-31.29Q162.63-33.92 164.15-35.44L164.15-35.44L164.15-35.44Q165.68-36.97 168.30-36.97L168.30-36.97L188.43-36.97L188.43-36.97Q188.86-36.30 189.19-35.20L189.19-35.20L189.19-35.20Q189.53-34.10 189.53-32.88L189.53-32.88L189.53-32.88Q189.53-30.56 188.52-29.59L188.52-29.59L188.52-29.59Q187.51-28.61 185.87-28.61L185.87-28.61L173.00-28.61L173.00-22.94L186.72-22.94L186.72-22.94Q187.15-22.27 187.48-21.20L187.48-21.20L187.48-21.20Q187.82-20.13 187.82-18.91L187.82-18.91L187.82-18.91Q187.82-16.59 186.84-15.62L186.84-15.62L186.84-15.62Q185.87-14.64 184.22-14.64L184.22-14.64L173.00-14.64L173.00-8.23L188.67-8.23L188.67-8.23Q189.10-7.56 189.44-6.47L189.44-6.47L189.44-6.47Q189.77-5.37 189.77-4.15L189.77-4.15L189.77-4.15Q189.77-1.83 188.76-0.82L188.76-0.82L188.76-0.82Q187.76 0.18 186.11 0.18L186.11 0.18L168.30 0.18L168.30 0.18Q165.68 0.18 164.15-1.34L164.15-1.34L164.15-1.34Q162.63-2.87 162.63-5.49L162.63-5.49" fill="#ff2626" stroke="none" stroke-width="none" transform="translate(-127.364990234375,15.734109564887152)" style="fill: rgb(255, 38, 38); animation-play-state: running; animation-delay: 0s;"></path></g><g class="path" style="transform: scale(0.91); transform-origin: 80.19px 6.00411px; animation: 1s linear -0.0733333s infinite normal forwards running breath-e4a861c5-c6f3-4a83-ab63-ad6842d1aad9;"><path d="M198.68-7.56L198.68-7.56L198.68-7.56Q198.01-9.09 197.24-10.98L197.24-10.98L197.24-10.98Q196.48-12.87 195.66-15.31L195.66-15.31L195.66-15.31Q194.83-17.75 193.95-20.89L193.95-20.89L193.95-20.89Q193.06-24.03 192.09-28.12L192.09-28.12L192.09-28.12Q192.94-28.97 194.38-29.62L194.38-29.62L194.38-29.62Q195.81-30.26 197.52-30.26L197.52-30.26L197.52-30.26Q199.65-30.26 201.06-29.37L201.06-29.37L201.06-29.37Q202.46-28.49 203.13-26.05L203.13-26.05L207.95-9.27L208.19-9.27L208.19-9.27Q208.92-11.35 209.63-13.79L209.63-13.79L209.63-13.79Q210.33-16.23 211.00-18.82L211.00-18.82L211.00-18.82Q211.67-21.41 212.25-24.00L212.25-24.00L212.25-24.00Q212.83-26.60 213.26-29.10L213.26-29.10L213.26-29.10Q215.45-30.26 218.07-30.26L218.07-30.26L218.07-30.26Q220.21-30.26 221.61-29.34L221.61-29.34L221.61-29.34Q223.02-28.43 223.02-26.17L223.02-26.17L223.02-26.17Q223.02-24.52 222.59-22.36L222.59-22.36L222.59-22.36Q222.16-20.19 221.46-17.75L221.46-17.75L221.46-17.75Q220.76-15.31 219.81-12.72L219.81-12.72L219.81-12.72Q218.87-10.13 217.83-7.63L217.83-7.63L217.83-7.63Q216.79-5.12 215.70-2.90L215.70-2.90L215.70-2.90Q214.60-0.67 213.56 1.10L213.56 1.10L213.56 1.10Q211.85 4.09 210.39 5.98L210.39 5.98L210.39 5.98Q208.92 7.87 207.58 8.94L207.58 8.94L207.58 8.94Q206.24 10.00 204.90 10.40L204.90 10.40L204.90 10.40Q203.56 10.80 202.09 10.80L202.09 10.80L202.09 10.80Q199.53 10.80 197.94 9.27L197.94 9.27L197.94 9.27Q196.36 7.75 196.05 5.31L196.05 5.31L196.05 5.31Q198.01 3.78 199.96 1.92L199.96 1.92L199.96 1.92Q201.91 0.06 203.50-1.89L203.50-1.89L203.50-1.89Q202.46-2.20 201.27-3.32L201.27-3.32L201.27-3.32Q200.08-4.45 198.68-7.56" fill="#ff2626" stroke="none" stroke-width="none" transform="translate(-127.364990234375,15.734109564887152)" style="fill: rgb(255, 38, 38); animation-play-state: running; animation-delay: 0s;"></path></g><g class="path" style="transform: scale(0.91); transform-origin: 113.585px 0.94411px; animation: 1s linear 0s infinite normal forwards running breath-e4a861c5-c6f3-4a83-ab63-ad6842d1aad9;"><path d="M243.02 0.98L243.02 0.98L243.02 0.98Q239.42 0.98 236.34-0.03L236.34-0.03L236.34-0.03Q233.26-1.04 230.98-3.05L230.98-3.05L230.98-3.05Q228.69-5.06 227.38-8.11L227.38-8.11L227.38-8.11Q226.07-11.16 226.07-15.25L226.07-15.25L226.07-15.25Q226.07-19.28 227.38-22.17L227.38-22.17L227.38-22.17Q228.69-25.07 230.82-26.93L230.82-26.93L230.82-26.93Q232.96-28.79 235.70-29.68L235.70-29.68L235.70-29.68Q238.45-30.56 241.32-30.56L241.32-30.56L241.32-30.56Q244.55-30.56 247.20-29.59L247.20-29.59L247.20-29.59Q249.86-28.61 251.78-26.90L251.78-26.90L251.78-26.90Q253.70-25.19 254.77-22.81L254.77-22.81L254.77-22.81Q255.83-20.43 255.83-17.63L255.83-17.63L255.83-17.63Q255.83-15.55 254.67-14.46L254.67-14.46L254.67-14.46Q253.52-13.36 251.44-13.05L251.44-13.05L236.37-10.80L236.37-10.80Q237.05-8.78 239.12-7.78L239.12-7.78L239.12-7.78Q241.19-6.77 243.88-6.77L243.88-6.77L243.88-6.77Q246.38-6.77 248.61-7.41L248.61-7.41L248.61-7.41Q250.83-8.05 252.23-8.91L252.23-8.91L252.23-8.91Q253.21-8.30 253.88-7.20L253.88-7.20L253.88-7.20Q254.55-6.10 254.55-4.88L254.55-4.88L254.55-4.88Q254.55-2.13 251.99-0.79L251.99-0.79L251.99-0.79Q250.04 0.24 247.60 0.61L247.60 0.61L247.60 0.61Q245.16 0.98 243.02 0.98zM241.32-23.00L241.32-23.00L241.32-23.00Q239.85-23.00 238.78-22.51L238.78-22.51L238.78-22.51Q237.72-22.02 237.05-21.26L237.05-21.26L237.05-21.26Q236.37-20.50 236.04-19.55L236.04-19.55L236.04-19.55Q235.70-18.61 235.64-17.63L235.64-17.63L246.07-19.34L246.07-19.34Q245.89-20.56 244.73-21.78L244.73-21.78L244.73-21.78Q243.57-23.00 241.32-23.00" fill="#ff2626" stroke="none" stroke-width="none" transform="translate(-127.364990234375,15.734109564887152)" style="fill: rgb(255, 38, 38); animation-play-state: running; animation-delay: 0s;"></path></g></g>
</g>
</g>
<style id="breath-e4a861c5-c6f3-4a83-ab63-ad6842d1aad9" data-anikit="">@keyframes breath-e4a861c5-c6f3-4a83-ab63-ad6842d1aad9
{
  0% {
    animation-timing-function: cubic-bezier(0.9647,0.2413,-0.0705,0.7911);
    transform: scale(0.9099999999999999);
  }
  51% {
    animation-timing-function: cubic-bezier(0.9226,0.2631,-0.0308,0.7628);
    transform: scale(1.02994);
  }
  100% {
    transform: scale(0.9099999999999999);
  }
}</style></svg>